# xmcd
#
# Track frame offsets: 
#        150
#        18976
#        35780
#        51188
#        66668
#        92962
#        109332
#        127202
#        140964
#        158248
#        170424
#
# Disc length: 2471 seconds
#
# Revision: 0
# Processed by: cddbd v1.5.2PL0 Copyright (c) Steve Scherf et al.
# Submitted via: ExactAudioCopy v1.0b4
#
DISCID=ae09a50b
DTITLE=Louisiana Red - New York Blues (LP)
DYEAR=1979
DGENRE=Blues
TTITLE0=New York Blues
TTITLE1=I'm In Trouble
TTITLE2=Country Boogie
TTITLE3=I'm A Roaming Stranger
TTITLE4=Chain Gang Blues
TTITLE5=Gasline Blues
TTITLE6=Westpenn Blues
TTITLE7=Hey Lawdy Mama
TTITLE8=Waterboy Blues
TTITLE9=Where Is My Friend
TTITLE10=Overseas Blues
EXTD=
EXTT0=
EXTT1=
EXTT2=
EXTT3=
EXTT4=
EXTT5=
EXTT6=
EXTT7=
EXTT8=
EXTT9=
EXTT10=
PLAYORDER=
